<svg width="24" height="22" viewBox="0 0 24 22" fill="none" xmlns="http://www.w3.org/2000/svg">
<path d="M11.1352 3.77888C11.3142 4.087 11.6436 4.27662 11.9999 4.27663C12.3562 4.27664 12.6856 4.08704 12.8646 3.77893C13.8444 2.09221 15.5731 1 17.5188 1C20.4934 1 23 3.56876 23 6.8583C23 8.638 22.2555 10.2177 21.097 11.2871C21.0802 11.3026 21.0641 11.3186 21.0484 11.3351L11.9999 20.9107L2.95143 11.3351C2.9358 11.3186 2.91962 11.3026 2.9029 11.2871C1.74441 10.2177 1 8.63803 1 6.8583C1 3.56859 3.5059 1 6.48038 1C8.42623 1 10.1556 2.09235 11.1352 3.77888Z" stroke="#0A1E32" stroke-width="2" stroke-linecap="round" stroke-linejoin="round"/>
</svg>
