<svg width="161" height="40" viewBox="0 0 161 40" fill="none" xmlns="http://www.w3.org/2000/svg">
<g clip-path="url(#clip0_4913_6)">
<path d="M39.527 23.9817V39.4662H46.5941V23.9817H51.8145V39.4662H58.7856L60.5683 32.9057H58.7856V16.9545H39.527L37.7764 23.9817H39.527ZM64.5156 24.013V39.4662H78.2353L79.8908 32.9057H71.5186V31.2266H78.0125L79.3812 25.6918H71.5186V24.013H78.0125L79.8908 16.3638H73.3649V16.9857H64.5156L62.7649 24.013H64.5156H64.5156ZM83.5513 24.0439V39.4662H90.4588V31.6931L94.4697 39.4662H103.16L96.1252 27.6507L102.173 17.0479H94.0878L90.4588 25.1323V17.0479H83.5513L81.6731 24.0439H83.5513V24.0439ZM117.453 16.3638C111.755 16.3638 105.287 20.4061 105.356 28.2882C105.356 35.7972 111.277 39.8133 117.453 40.0001C124.137 40.1556 129.613 35.2065 129.676 28.2882C129.676 20.4061 123.151 16.3638 117.453 16.3638ZM117.453 23.391C120.031 23.391 122.482 25.4379 122.482 28.2882C122.482 31.1385 120.031 33.2164 117.453 33.2164C114.843 33.2164 112.423 31.1385 112.423 28.2882C112.423 25.4379 114.843 23.391 117.453 23.391ZM143.332 33.0609V39.4661H150.336V38.0671C157.052 37.8804 161 32.7502 161 27.4952C161 22.5514 157.275 18.0741 151.641 17.0479L150.336 22.5514V16.4884H143.332V17.0479C136.648 17.421 132.637 22.4581 132.668 27.6507C132.668 32.5635 136.329 37.2275 142.155 38.0671L143.332 33.0609V33.0609ZM153.996 27.7131C153.996 29.361 152.659 30.9468 150.336 30.9468V24.4791C152.532 24.4791 153.996 25.9094 153.996 27.7131ZM143.332 24.4791V31.0711C140.977 31.0711 139.64 29.361 139.64 27.7131C139.64 25.9094 141.104 24.3239 143.332 24.4791Z" fill="#0A1E32"/>
<path fill-rule="evenodd" clip-rule="evenodd" d="M11.1509 0.000244141C15.2648 6.52039 20.7203 15.6837 22.3051 18.3503C22.8123 19.2038 23.0728 20.4075 22.2662 22.0378C20.2575 26.0971 16.672 31.0108 15.9784 33.0205C15.6525 33.6152 17.9316 33.5606 18.0681 33.3384C19.4265 31.1264 20.5573 28.3146 22.8049 26.6112C25.6034 24.4905 27.9909 26.4773 31.071 30.0191C23.897 29.8036 25.0555 39.0963 20.0649 39.1678C12.5698 39.275 7.70878 39.1793 0 39.1579C1.76698 35.8774 5.02682 30.5866 6.45121 27.6771C6.77527 27.0153 6.89915 26.4797 6.90003 26.1029C6.90092 25.7293 6.7683 25.0354 6.51122 24.5588C5.11527 21.9704 2.81264 18.6456 0.861482 15.2311C0.081635 13.8666 1.42084 10.0227 2.39197 9.86986C4.89789 13.8757 8.38399 19.5014 10.4943 22.7993C10.8819 23.4053 10.9607 24.0114 11.067 24.5303C11.1935 25.1492 10.9908 26.2434 10.6763 26.8076C8.77221 30.2234 5.16105 35.6417 5.37443 36.3496C5.44999 36.6008 6.36661 36.7212 7.92644 36.7003C10.3774 36.6675 15.282 36.8157 18.2625 36.7397C19.6168 36.7051 19.6818 36.7796 20.6542 36.3923C22.9303 35.4857 23.3072 31.9336 25.5324 29.9894C25.8253 29.7334 26.8634 29.1656 26.7683 28.6052C26.6732 28.0449 25.7635 27.5259 25.0604 27.6562C24.1154 27.8314 23.7198 28.0398 23.261 28.5732C22.3188 29.6687 20.5545 32.3664 19.403 34.4164C17.2949 34.453 15.1421 34.5086 12.8684 34.4788C14.348 31.4217 16.4268 28.1506 18.0931 25.0461C18.4299 24.4186 18.6535 23.7959 18.7688 23.1277C19.1077 21.1623 16.987 18.8337 15.5085 16.3875C12.7504 11.8239 11.0271 9.16123 9.5365 6.59002C8.57248 4.92745 9.44849 1.49956 11.1509 0.00025323L11.1509 0.000244141Z" fill="#0A1E32"/>
<path fill-rule="evenodd" clip-rule="evenodd" d="M6.6149 5.24292C9.57928 10.0776 13.9198 17.1123 16.0821 20.493C16.5826 21.2756 16.7422 21.8615 16.7696 22.4917C16.7893 22.9459 16.7963 23.5857 16.3663 24.4249C15.0854 26.9243 12.357 31.181 10.5058 34.3407C9.71694 34.3799 9.36428 34.3434 8.59807 34.3308C10.0003 31.7496 11.8884 28.6134 12.9974 26.4377C13.2534 25.9353 13.3982 25.4485 13.3414 24.9888C13.2414 24.1801 13.0525 23.7183 12.6566 23.0462C10.4014 19.2178 7.97189 15.4859 5.18235 10.8168C4.31435 9.36395 5.31986 6.39342 6.61491 5.24293L6.6149 5.24292Z" fill="#0A1E32"/>
</g>
<defs>
<clipPath id="clip0_4913_6">
<rect width="161" height="40" fill="white"/>
</clipPath>
</defs>
</svg>
